PathFileType	4	(X/Y/Z)	outputs\dynamic_markers.trc
DataRate	CameraRate	NumFrames	NumMarkers	Units	OrigDataRate	OrigDataStartFrame	OrigNumFrames
360.000000	360.000000	4	48	m	360.000000	0	639
Frame#	Time	C7			CLAV			LANK			LASI			LBAK			LBHD			LELB			LFHD			LFIN			LFRM			LHEE			LIC			LKNE			LMANK			LMELB			LMKNE			LPSI			LSHO			LTHI			LTIB			LTOE			LUPA			LWRA			LWRB			RANK			RASI			RBAK			RBHD			RELB			RFHD			RFIN			RFRM			RHEE			RIC			RKNE			RMANK			RMELB			RMKNE			RPSI			RSHO			RTHI			RTIB			RTOE			RUPA			RWRA			RWRB			STRN			T10			
		X1	Y1	Z1	X2	Y2	Z2	X3	Y3	Z3	X4	Y4	Z4	X5	Y5	Z5	X6	Y6	Z6	X7	Y7	Z7	X8	Y8	Z8	X9	Y9	Z9	X10	Y10	Z10	X11	Y11	Z11	X12	Y12	Z12	X13	Y13	Z13	X14	Y14	Z14	X15	Y15	Z15	X16	Y16	Z16	X17	Y17	Z17	X18	Y18	Z18	X19	Y19	Z19	X20	Y20	Z20	X21	Y21	Z21	X22	Y22	Z22	X23	Y23	Z23	X24	Y24	Z24	X25	Y25	Z25	X26	Y26	Z26	X27	Y27	Z27	X28	Y28	Z28	X29	Y29	Z29	X30	Y30	Z30	X31	Y31	Z31	X32	Y32	Z32	X33	Y33	Z33	X34	Y34	Z34	X35	Y35	Z35	X36	Y36	Z36	X37	Y37	Z37	X38	Y38	Z38	X39	Y39	Z39	X40	Y40	Z40	X41	Y41	Z41	X42	Y42	Z42	X43	Y43	Z43	X44	Y44	Z44	X45	Y45	Z45	X46	Y46	Z46	X47	Y47	Z47	X48	Y48	Z48	

1	0	0.09770716726779938	1.650085687637329	0.07046694308519363	0.176801860332489	1.540837526321411	0.1810630410909653	0.2747951447963715	0.06708082556724548	-0.2565073072910309	0.2964761257171631	1.125753879547119	-0.01845930889248848	0.1492757797241211	1.482735872268677	-0.1057914048433304	0.1138284206390381	1.778829574584961	0.07240727543830872	0.4288128912448883	1.285948753356934	-0.1119232103228569	0.2225947231054306	1.853295922279358	0.1262920349836349	0.360631912946701	1.182002425193787	0.2429258078336716	0.4031202793121338	1.240074157714844	0.03913883119821548	0.1972026526927948	0.07533957809209824	-0.311762809753418	0.2955446243286133	1.209511041641235	-0.1084664538502693	0.3122207820415497	0.5805401802062988	-0.1350553035736084	0.1724007278680801	0.0764671266078949	-0.2039639055728912	0.3402463495731354	1.271404027938843	-0.1400863826274872	0.1905504614114761	0.5477308630943298	-0.0901176854968071	0.1310888826847076	1.178626775741577	-0.1558956503868103	0.3145346641540527	1.641038656234741	0.03608320280909538	0.3178085684776306	0.6825543642044067	-0.1449395716190338	0.3122045993804932	0.4717853963375092	-0.1947736144065857	0.2593879997730255	0.06985490024089813	-0.06455677002668381	0.4019126892089844	1.465908050537109	-0.03923161700367928	0.3212485015392303	1.226326465606689	0.1524265259504318	0.3361546099185944	1.140816450119019	0.1369903087615967	0.009188932366669178	0.1063311696052551	0.04765735566616058	0.02153200097382069	1.109257698059082	0.09028243273496628	-0.01971470378339291	1.463778018951416	-0.02642025426030159	0.04475792497396469	1.778079390525818	0.2050627321004868	-0.1563898921012878	1.20671010017395	0.156005010008812	0.1515008062124252	1.84902036190033	0.2668685615062714	0.1708109229803085	1.225252151489258	0.2680566906929016	-0.009604002349078655	1.209818005561829	0.2201580256223679	0.05414608493447304	0.109833687543869	-0.02128061279654503	-0.04834695532917976	1.171992063522339	0.02907876670360565	0.055195402354002	0.6043086647987366	0.2079511731863022	0.1139668822288513	0.09173183143138885	0.03553589433431625	-0.1149510368704796	1.206096887588501	0.07144340872764587	0.1821905523538589	0.6068412661552429	0.156525582075119	0.03618413582444191	1.170282602310181	-0.1122014671564102	-0.0282072052359581	1.574714064598083	0.2145182192325592	-0.006656747777014971	0.7610417604446411	0.1467236578464508	0.006456346716731787	0.4815899431705475	0.1289714723825455	0.1134096533060074	0.06545013189315796	0.254745751619339	-0.1063130721449852	1.388176679611206	0.210158959031105	0.1454239338636398	1.215657472610474	0.2063827961683273	0.1082681119441986	1.154986619949341	0.2587257921695709	0.1961854845285416	1.343544244766235	0.1327726393938065	0.08477196097373962	1.308850526809692	-0.1039186045527458	
2	0.002777777777777778	0.09775078296661377	1.650128483772278	0.07006743550300598	0.1767522096633911	1.540915369987488	0.1807397305965424	0.2747795879840851	0.06705833226442337	-0.2565199732780457	0.2969875633716583	1.125816106796265	-0.01914055272936821	0.1494107693433762	1.482710361480713	-0.1060347706079483	0.1138335764408112	1.778937101364136	0.07212309539318085	0.4289241433143616	1.286127805709839	-0.1121728494763374	0.222602978348732	1.853331089019775	0.1261219829320908	0.3605861067771912	1.182107210159302	0.2425317913293839	0.4031647443771362	1.240138292312622	0.0387757420539856	0.1971771866083145	0.07530701905488968	-0.3117688596248627	0.2957096695899963	1.209491014480591	-0.1086271032691002	0.3121630549430847	0.5806029438972473	-0.1354083567857742	0.172359824180603	0.07644104957580566	-0.2039826959371567	0.3403930068016052	1.271579504013062	-0.1403655111789703	0.1905951946973801	0.5478012561798096	-0.09047463536262512	0.1314011067152023	1.178559422492981	-0.1562759280204773	0.3146190941333771	1.641165733337402	0.0358564555644989	0.3177306354045868	0.6826223731040955	-0.1454863548278809	0.312122255563736	0.4717677235603333	-0.1952249854803085	0.2593593299388885	0.06989159435033798	-0.06458784639835358	0.4020273089408875	1.46609628200531	-0.03958316892385483	0.3212185502052307	1.22637951374054	0.1521013975143433	0.3361433148384094	1.140851974487305	0.1366911828517914	0.009826188907027245	0.1051594316959381	0.04606032371520996	0.02152208238840103	1.109309077262878	0.08995623886585236	-0.01963766105473042	1.463825345039368	-0.02685434371232986	0.04467295855283737	1.778110027313232	0.2046604454517365	-0.1564627289772034	1.206822156906128	0.155266135931015	0.1513726264238358	1.849030613899231	0.2665824890136719	0.1704535484313965	1.225324511528015	0.2677926123142242	-0.009771863929927349	1.209789991378784	0.219672828912735	0.05501626804471016	0.1092243939638138	-0.02279256843030453	-0.04820946604013443	1.172030687332153	0.02871701866388321	0.05525287240743637	0.6034452319145203	0.2062752246856689	0.1146737784147263	0.09108098596334457	0.0344054140150547	-0.1148848086595535	1.206244111061096	0.07071883231401443	0.1821034103631973	0.6060106754302979	0.1546602249145508	0.03637581318616867	1.170275568962097	-0.112496480345726	-0.02828366681933403	1.574794292449951	0.2139619439840317	-0.006372785661369562	0.7605131864547729	0.145537257194519	0.006639942526817322	0.4806144237518311	0.1271699517965317	0.1130507364869118	0.0646759569644928	0.2536605596542358	-0.1063141748309135	1.388288140296936	0.2094593197107315	0.1452788561582565	1.215711832046509	0.2061547040939331	0.1080169379711151	1.155030727386475	0.258345752954483	0.1961479485034943	1.343597888946533	0.1325212121009827	0.08487635105848312	1.308856248855591	-0.104230098426342	
3	0.005555555555555556	0.09783712029457092	1.650152802467346	0.06949722766876221	0.176698237657547	1.541041016578674	0.1802432388067245	0.2747529745101929	0.06705780327320099	-0.2565580010414124	0.2973165512084961	1.125829577445984	-0.01966781727969646	0.1496511697769165	1.482683897018433	-0.1064146235585213	0.113852247595787	1.779100656509399	0.07160217314958572	0.429076761007309	1.286405205726624	-0.1125129610300064	0.2225960195064545	1.853402376174927	0.1258746087551117	0.3605220913887024	1.182303428649902	0.2419557422399521	0.4032535552978516	1.240286350250244	0.03821804374456406	0.1971385776996613	0.07524757832288742	-0.311803013086319	0.2959369421005249	1.209446668624878	-0.1088562235236168	0.3121021389961243	0.5807266235351562	-0.1360087841749191	0.1722875982522964	0.07645639032125473	-0.2040624022483826	0.3406218886375427	1.271892666816711	-0.1407628953456879	0.1905778348445892	0.5478983521461487	-0.09104349464178085	0.1318505108356476	1.178447246551514	-0.1567878723144531	0.3147147595882416	1.641332507133484	0.03553596511483192	0.3176953792572021	0.682733416557312	-0.1461988240480423	0.3119478821754456	0.4717932343482971	-0.1958336234092712	0.259345531463623	0.06995771080255508	-0.06462281197309494	0.4022132158279419	1.466364026069641	-0.04011174291372299	0.3211351037025452	1.226478576660156	0.1516184061765671	0.3360907435417175	1.140924453735352	0.1361771821975708	0.01089505478739738	0.1032079607248306	0.04365428537130356	0.02159433811903	1.109333395957947	0.08950368314981461	-0.01954009383916855	1.463863492012024	-0.02750768139958382	0.04453118890523911	1.778156757354736	0.2041185349225998	-0.1565477550029755	1.206958174705505	0.1541304886341095	0.1511287093162537	1.848999381065369	0.2661924958229065	0.1698569059371948	1.225449681282043	0.2674294114112854	-0.01001571491360664	1.209850788116455	0.2187199145555496	0.05614688247442245	0.1081269681453705	-0.02495569735765457	-0.04798926040530205	1.172043919563293	0.02816111594438553	0.05536743253469467	0.602154016494751	0.2037912607192993	0.1158120632171631	0.09019680321216583	0.03284826874732971	-0.1148061081767082	1.206433653831482	0.06963349133729935	0.1821927726268768	0.6048083305358887	0.1519728004932404	0.03656468912959099	1.170325756072998	-0.113100066781044	-0.02844881825149059	1.574918508529663	0.2131444215774536	-0.006004738621413708	0.759634256362915	0.1436661183834076	0.006828811950981617	0.4791230261325836	0.1245816200971603	0.1122340187430382	0.06456475704908371	0.2522968053817749	-0.1064823418855667	1.388552784919739	0.2083964496850967	0.1449903547763824	1.215847134590149	0.2058460414409637	0.1077642738819122	1.155060768127441	0.2576511204242706	0.1961324214935303	1.343663692474365	0.1321550607681274	0.08504698425531387	1.308833837509155	-0.1046537533402443	
4	0.008333333333333333	0.09793679416179657	1.650177717208862	0.06894928216934204	0.1766383796930313	1.541159391403198	0.1797748506069183	0.2747428417205811	0.06705403327941895	-0.2565895020961761	0.2975463271141052	1.125824928283691	-0.02005467005074024	0.1499104350805283	1.48263418674469	-0.1067684888839722	0.1139074936509132	1.779255986213684	0.07110872864723206	0.4292590916156769	1.286677241325378	-0.1129392758011818	0.2225845903158188	1.853478908538818	0.125611886382103	0.3604443371295929	1.182451963424683	0.2414058595895767	0.4032948315143585	1.240472912788391	0.03783084452152252	0.1971185207366943	0.07518989592790604	-0.3118325471878052	0.2961962819099426	1.209382295608521	-0.1090561375021935	0.3120469450950623	0.5808857083320618	-0.1367312371730804	0.1722513735294342	0.07641404867172241	-0.2041186541318893	0.3407943546772003	1.272202849388123	-0.1412102431058884	0.1905712485313416	0.5479963421821594	-0.09165368229150772	0.1321793794631958	1.178362846374512	-0.1573287546634674	0.3148232996463776	1.64151918888092	0.03523226082324982	0.3176719546318054	0.6828182935714722	-0.1468504518270493	0.3118330836296082	0.4718427062034607	-0.1964365243911743	0.2593232989311218	0.07004033029079437	-0.06464748829603195	0.4023797512054443	1.466655492782593	-0.04061246290802956	0.3210692405700684	1.226621150970459	0.1510533392429352	0.3360374569892883	1.141011118888855	0.1356529742479324	0.01202963013201952	0.1009551510214806	0.04120903834700584	0.02163389511406422	1.109318852424622	0.08910122513771057	-0.01947327144443989	1.463910222053528	-0.02826682291924953	0.04442528635263443	1.778171420097351	0.2036378383636475	-0.1565475463867188	1.207123398780823	0.1529668122529984	0.1509094685316086	1.848954200744629	0.2658080458641052	0.169151708483696	1.225609421730042	0.2670964002609253	-0.01023068930953741	1.209962010383606	0.2178022563457489	0.05789449438452721	0.1063042879104614	-0.02683891169726849	-0.04782238230109215	1.172040939331055	0.02766787260770798	0.05551890283823013	0.6008045673370361	0.2012629210948944	0.1169848814606667	0.08951721340417862	0.03177028894424438	-0.1147921830415726	1.206654071807861	0.06849660724401474	0.1821436882019043	0.6036192178726196	0.1492742598056793	0.03697052970528603	1.170301079750061	-0.113615095615387	-0.02862680330872536	1.575029253959656	0.2124197483062744	-0.005661459639668465	0.7587788701057434	0.1418827772140503	0.007013501599431038	0.4776580929756165	0.1220670714974403	0.111010305583477	0.0654241219162941	0.2513397932052612	-0.1067381799221039	1.388741016387939	0.2073650509119034	0.1448271125555038	1.215941905975342	0.2053423523902893	0.1075002774596214	1.155125617980957	0.2570599913597107	0.1961413323879242	1.343719124794006	0.1318825334310532	0.08528938144445419	1.308704376220703	-0.1050049290060997	
